# xmcd
#
# Track frame offsets:
#	150
#	13135
#	32844
#	48055
#	63108
#	80971
#	97090
#	109863
#	125375
#	138167
#
# Disc length: 2075 seconds
#
# Revision: 0
# Processed by: cddbd v1.4PL0 Copyright (c) Steve Scherf et al.
# Submitted via: dBpowerAMP V4.0
#
DISCID=8208190a
DTITLE=Zalo Reyes - Grandes de la musica popular
DYEAR=1900
DGENRE=
TTITLE0=Mi prisionera
TTITLE1=Maraia Teresa y Danilo
TTITLE2=Motivo y razón
TTITLE3=El rey de tus sueños
TTITLE4=Un ramito de violetas
TTITLE5=Una lagrima en la garganta
TTITLE6=Una lagrima y un recuerdo
TTITLE7=Amor sin trampas
TTITLE8=Mientele
TTITLE9=Por favor no me compares
EXTD=xjosekenobix
EXTT0=
EXTT1=
EXTT2=
EXTT3=
EXTT4=
EXTT5=
EXTT6=
EXTT7=
EXTT8=
EXTT9=
PLAYORDER=
